<svg id="Layer_1" data-name="Layer 1" xmlns="http://www.w3.org/2000/svg" viewBox="0 0 792 612"><defs><style>.cls-1{fill:none;stroke:#485860;stroke-linecap:round;stroke-linejoin:round;stroke-width:2px;}</style></defs><title>Artboard 1</title><line class="cls-1" x1="24" y1="78.8" x2="31.07" y2="71.73"/><line class="cls-1" x1="24" y1="71.73" x2="31.07" y2="78.8"/><line class="cls-1" x1="76.75" y1="78.8" x2="83.82" y2="71.73"/><line class="cls-1" x1="76.75" y1="71.73" x2="83.82" y2="78.8"/><line class="cls-1" x1="129.5" y1="78.8" x2="136.57" y2="71.73"/><line class="cls-1" x1="129.5" y1="71.73" x2="136.57" y2="78.8"/><line class="cls-1" x1="182.25" y1="78.8" x2="189.32" y2="71.73"/><line class="cls-1" x1="182.25" y1="71.73" x2="189.32" y2="78.8"/><line class="cls-1" x1="235" y1="78.8" x2="242.07" y2="71.73"/><line class="cls-1" x1="235" y1="71.73" x2="242.07" y2="78.8"/><line class="cls-1" x1="287.75" y1="78.8" x2="294.82" y2="71.73"/><line class="cls-1" x1="287.75" y1="71.73" x2="294.82" y2="78.8"/><line class="cls-1" x1="340.5" y1="78.8" x2="347.57" y2="71.73"/><line class="cls-1" x1="340.5" y1="71.73" x2="347.57" y2="78.8"/><line class="cls-1" x1="393.25" y1="78.8" x2="400.32" y2="71.73"/><line class="cls-1" x1="393.25" y1="71.73" x2="400.32" y2="78.8"/><line class="cls-1" x1="446" y1="78.8" x2="453.07" y2="71.73"/><line class="cls-1" x1="446" y1="71.73" x2="453.07" y2="78.8"/><line class="cls-1" x1="498.75" y1="78.8" x2="505.82" y2="71.73"/><line class="cls-1" x1="498.75" y1="71.73" x2="505.82" y2="78.8"/><line class="cls-1" x1="551.5" y1="78.8" x2="558.57" y2="71.73"/><line class="cls-1" x1="551.5" y1="71.73" x2="558.57" y2="78.8"/><line class="cls-1" x1="604.25" y1="78.8" x2="611.32" y2="71.73"/><line class="cls-1" x1="604.25" y1="71.73" x2="611.32" y2="78.8"/><line class="cls-1" x1="657" y1="78.8" x2="664.07" y2="71.73"/><line class="cls-1" x1="657" y1="71.73" x2="664.07" y2="78.8"/><line class="cls-1" x1="709.75" y1="78.8" x2="716.82" y2="71.73"/><line class="cls-1" x1="709.75" y1="71.73" x2="716.82" y2="78.8"/><line class="cls-1" x1="762.5" y1="78.8" x2="769.57" y2="71.73"/><line class="cls-1" x1="762.5" y1="71.73" x2="769.57" y2="78.8"/><line class="cls-1" x1="24" y1="151.45" x2="31.07" y2="144.37"/><line class="cls-1" x1="24" y1="144.37" x2="31.07" y2="151.45"/><line class="cls-1" x1="76.75" y1="151.45" x2="83.82" y2="144.37"/><line class="cls-1" x1="76.75" y1="144.37" x2="83.82" y2="151.45"/><line class="cls-1" x1="129.5" y1="151.45" x2="136.57" y2="144.37"/><line class="cls-1" x1="129.5" y1="144.37" x2="136.57" y2="151.45"/><line class="cls-1" x1="182.25" y1="151.45" x2="189.32" y2="144.37"/><line class="cls-1" x1="182.25" y1="144.37" x2="189.32" y2="151.45"/><line class="cls-1" x1="235" y1="151.45" x2="242.07" y2="144.37"/><line class="cls-1" x1="235" y1="144.37" x2="242.07" y2="151.45"/><line class="cls-1" x1="287.75" y1="151.45" x2="294.82" y2="144.37"/><line class="cls-1" x1="287.75" y1="144.37" x2="294.82" y2="151.45"/><line class="cls-1" x1="340.5" y1="151.45" x2="347.57" y2="144.37"/><line class="cls-1" x1="340.5" y1="144.37" x2="347.57" y2="151.45"/><line class="cls-1" x1="393.25" y1="151.45" x2="400.32" y2="144.37"/><line class="cls-1" x1="393.25" y1="144.37" x2="400.32" y2="151.45"/><line class="cls-1" x1="446" y1="151.45" x2="453.07" y2="144.37"/><line class="cls-1" x1="446" y1="144.37" x2="453.07" y2="151.45"/><line class="cls-1" x1="498.75" y1="151.45" x2="505.82" y2="144.37"/><line class="cls-1" x1="498.75" y1="144.37" x2="505.82" y2="151.45"/><line class="cls-1" x1="551.5" y1="151.45" x2="558.57" y2="144.37"/><line class="cls-1" x1="551.5" y1="144.37" x2="558.57" y2="151.45"/><line class="cls-1" x1="604.25" y1="151.45" x2="611.32" y2="144.37"/><line class="cls-1" x1="604.25" y1="144.37" x2="611.32" y2="151.45"/><line class="cls-1" x1="657" y1="151.45" x2="664.07" y2="144.37"/><line class="cls-1" x1="657" y1="144.37" x2="664.07" y2="151.45"/><line class="cls-1" x1="709.75" y1="151.45" x2="716.82" y2="144.37"/><line class="cls-1" x1="709.75" y1="144.37" x2="716.82" y2="151.45"/><line class="cls-1" x1="762.5" y1="151.45" x2="769.57" y2="144.37"/><line class="cls-1" x1="762.5" y1="144.37" x2="769.57" y2="151.45"/><line class="cls-1" x1="24" y1="224.09" x2="31.07" y2="217.02"/><line class="cls-1" x1="24" y1="217.02" x2="31.07" y2="224.09"/><line class="cls-1" x1="76.75" y1="224.09" x2="83.82" y2="217.02"/><line class="cls-1" x1="76.75" y1="217.02" x2="83.82" y2="224.09"/><line class="cls-1" x1="129.5" y1="224.09" x2="136.57" y2="217.02"/><line class="cls-1" x1="129.5" y1="217.02" x2="136.57" y2="224.09"/><line class="cls-1" x1="182.25" y1="224.09" x2="189.32" y2="217.02"/><line class="cls-1" x1="182.25" y1="217.02" x2="189.32" y2="224.09"/><line class="cls-1" x1="235" y1="224.09" x2="242.07" y2="217.02"/><line class="cls-1" x1="235" y1="217.02" x2="242.07" y2="224.09"/><line class="cls-1" x1="287.75" y1="224.09" x2="294.82" y2="217.02"/><line class="cls-1" x1="287.75" y1="217.02" x2="294.82" y2="224.09"/><line class="cls-1" x1="340.5" y1="224.09" x2="347.57" y2="217.02"/><line class="cls-1" x1="340.5" y1="217.02" x2="347.57" y2="224.09"/><line class="cls-1" x1="393.25" y1="224.09" x2="400.32" y2="217.02"/><line class="cls-1" x1="393.25" y1="217.02" x2="400.32" y2="224.09"/><line class="cls-1" x1="446" y1="224.09" x2="453.07" y2="217.02"/><line class="cls-1" x1="446" y1="217.02" x2="453.07" y2="224.09"/><line class="cls-1" x1="498.75" y1="224.09" x2="505.82" y2="217.02"/><line class="cls-1" x1="498.75" y1="217.02" x2="505.82" y2="224.09"/><line class="cls-1" x1="551.5" y1="224.09" x2="558.57" y2="217.02"/><line class="cls-1" x1="551.5" y1="217.02" x2="558.57" y2="224.09"/><line class="cls-1" x1="604.25" y1="224.09" x2="611.32" y2="217.02"/><line class="cls-1" x1="604.25" y1="217.02" x2="611.32" y2="224.09"/><line class="cls-1" x1="657" y1="224.09" x2="664.07" y2="217.02"/><line class="cls-1" x1="657" y1="217.02" x2="664.07" y2="224.09"/><line class="cls-1" x1="709.75" y1="224.09" x2="716.82" y2="217.02"/><line class="cls-1" x1="709.75" y1="217.02" x2="716.82" y2="224.09"/><line class="cls-1" x1="762.5" y1="224.09" x2="769.57" y2="217.02"/><line class="cls-1" x1="762.5" y1="217.02" x2="769.57" y2="224.09"/><line class="cls-1" x1="24" y1="296.73" x2="31.07" y2="289.66"/><line class="cls-1" x1="24" y1="289.66" x2="31.07" y2="296.73"/><line class="cls-1" x1="76.75" y1="296.73" x2="83.82" y2="289.66"/><line class="cls-1" x1="76.75" y1="289.66" x2="83.82" y2="296.73"/><line class="cls-1" x1="129.5" y1="296.73" x2="136.57" y2="289.66"/><line class="cls-1" x1="129.5" y1="289.66" x2="136.57" y2="296.73"/><line class="cls-1" x1="182.25" y1="296.73" x2="189.32" y2="289.66"/><line class="cls-1" x1="182.25" y1="289.66" x2="189.32" y2="296.73"/><line class="cls-1" x1="235" y1="296.73" x2="242.07" y2="289.66"/><line class="cls-1" x1="235" y1="289.66" x2="242.07" y2="296.73"/><line class="cls-1" x1="287.75" y1="296.73" x2="294.82" y2="289.66"/><line class="cls-1" x1="287.75" y1="289.66" x2="294.82" y2="296.73"/><line class="cls-1" x1="340.5" y1="296.73" x2="347.57" y2="289.66"/><line class="cls-1" x1="340.5" y1="289.66" x2="347.57" y2="296.73"/><line class="cls-1" x1="393.25" y1="296.73" x2="400.32" y2="289.66"/><line class="cls-1" x1="393.25" y1="289.66" x2="400.32" y2="296.73"/><line class="cls-1" x1="446" y1="296.73" x2="453.07" y2="289.66"/><line class="cls-1" x1="446" y1="289.66" x2="453.07" y2="296.73"/><line class="cls-1" x1="498.75" y1="296.73" x2="505.82" y2="289.66"/><line class="cls-1" x1="498.75" y1="289.66" x2="505.82" y2="296.73"/><line class="cls-1" x1="551.5" y1="296.73" x2="558.57" y2="289.66"/><line class="cls-1" x1="551.5" y1="289.66" x2="558.57" y2="296.73"/><line class="cls-1" x1="604.25" y1="296.73" x2="611.32" y2="289.66"/><line class="cls-1" x1="604.25" y1="289.66" x2="611.32" y2="296.73"/><line class="cls-1" x1="657" y1="296.73" x2="664.07" y2="289.66"/><line class="cls-1" x1="657" y1="289.66" x2="664.07" y2="296.73"/><line class="cls-1" x1="709.75" y1="296.73" x2="716.82" y2="289.66"/><line class="cls-1" x1="709.75" y1="289.66" x2="716.82" y2="296.73"/><line class="cls-1" x1="762.5" y1="296.73" x2="769.57" y2="289.66"/><line class="cls-1" x1="762.5" y1="289.66" x2="769.57" y2="296.73"/><line class="cls-1" x1="24" y1="369.38" x2="31.07" y2="362.31"/><line class="cls-1" x1="24" y1="362.31" x2="31.07" y2="369.38"/><line class="cls-1" x1="76.75" y1="369.38" x2="83.82" y2="362.31"/><line class="cls-1" x1="76.75" y1="362.31" x2="83.82" y2="369.38"/><line class="cls-1" x1="129.5" y1="369.38" x2="136.57" y2="362.31"/><line class="cls-1" x1="129.5" y1="362.31" x2="136.57" y2="369.38"/><line class="cls-1" x1="182.25" y1="369.38" x2="189.32" y2="362.31"/><line class="cls-1" x1="182.25" y1="362.31" x2="189.32" y2="369.38"/><line class="cls-1" x1="235" y1="369.38" x2="242.07" y2="362.31"/><line class="cls-1" x1="235" y1="362.31" x2="242.07" y2="369.38"/><line class="cls-1" x1="287.75" y1="369.38" x2="294.82" y2="362.31"/><line class="cls-1" x1="287.75" y1="362.31" x2="294.82" y2="369.38"/><line class="cls-1" x1="340.5" y1="369.38" x2="347.57" y2="362.31"/><line class="cls-1" x1="340.5" y1="362.31" x2="347.57" y2="369.38"/><line class="cls-1" x1="393.25" y1="369.38" x2="400.32" y2="362.31"/><line class="cls-1" x1="393.25" y1="362.31" x2="400.32" y2="369.38"/><line class="cls-1" x1="446" y1="369.38" x2="453.07" y2="362.31"/><line class="cls-1" x1="446" y1="362.31" x2="453.07" y2="369.38"/><line class="cls-1" x1="498.75" y1="369.38" x2="505.82" y2="362.31"/><line class="cls-1" x1="498.75" y1="362.31" x2="505.82" y2="369.38"/><line class="cls-1" x1="551.5" y1="369.38" x2="558.57" y2="362.31"/><line class="cls-1" x1="551.5" y1="362.31" x2="558.57" y2="369.38"/><line class="cls-1" x1="604.25" y1="369.38" x2="611.32" y2="362.31"/><line class="cls-1" x1="604.25" y1="362.31" x2="611.32" y2="369.38"/><line class="cls-1" x1="657" y1="369.38" x2="664.07" y2="362.31"/><line class="cls-1" x1="657" y1="362.31" x2="664.07" y2="369.38"/><line class="cls-1" x1="709.75" y1="369.38" x2="716.82" y2="362.31"/><line class="cls-1" x1="709.75" y1="362.31" x2="716.82" y2="369.38"/><line class="cls-1" x1="762.5" y1="369.38" x2="769.57" y2="362.31"/><line class="cls-1" x1="762.5" y1="362.31" x2="769.57" y2="369.38"/><line class="cls-1" x1="24" y1="442.02" x2="31.07" y2="434.95"/><line class="cls-1" x1="24" y1="434.95" x2="31.07" y2="442.02"/><line class="cls-1" x1="76.75" y1="442.02" x2="83.82" y2="434.95"/><line class="cls-1" x1="76.75" y1="434.95" x2="83.82" y2="442.02"/><line class="cls-1" x1="129.5" y1="442.02" x2="136.57" y2="434.95"/><line class="cls-1" x1="129.5" y1="434.95" x2="136.57" y2="442.02"/><line class="cls-1" x1="182.25" y1="442.02" x2="189.32" y2="434.95"/><line class="cls-1" x1="182.25" y1="434.95" x2="189.32" y2="442.02"/><line class="cls-1" x1="235" y1="442.02" x2="242.07" y2="434.95"/><line class="cls-1" x1="235" y1="434.95" x2="242.07" y2="442.02"/><line class="cls-1" x1="287.75" y1="442.02" x2="294.82" y2="434.95"/><line class="cls-1" x1="287.75" y1="434.95" x2="294.82" y2="442.02"/><line class="cls-1" x1="340.5" y1="442.02" x2="347.57" y2="434.95"/><line class="cls-1" x1="340.5" y1="434.95" x2="347.57" y2="442.02"/><line class="cls-1" x1="393.25" y1="442.02" x2="400.32" y2="434.95"/><line class="cls-1" x1="393.25" y1="434.95" x2="400.32" y2="442.02"/><line class="cls-1" x1="446" y1="442.02" x2="453.07" y2="434.95"/><line class="cls-1" x1="446" y1="434.95" x2="453.07" y2="442.02"/><line class="cls-1" x1="498.75" y1="442.02" x2="505.82" y2="434.95"/><line class="cls-1" x1="498.75" y1="434.95" x2="505.82" y2="442.02"/><line class="cls-1" x1="551.5" y1="442.02" x2="558.57" y2="434.95"/><line class="cls-1" x1="551.5" y1="434.95" x2="558.57" y2="442.02"/><line class="cls-1" x1="604.25" y1="442.02" x2="611.32" y2="434.95"/><line class="cls-1" x1="604.25" y1="434.95" x2="611.32" y2="442.02"/><line class="cls-1" x1="657" y1="442.02" x2="664.07" y2="434.95"/><line class="cls-1" x1="657" y1="434.95" x2="664.07" y2="442.02"/><line class="cls-1" x1="709.75" y1="442.02" x2="716.82" y2="434.95"/><line class="cls-1" x1="709.75" y1="434.95" x2="716.82" y2="442.02"/><line class="cls-1" x1="762.5" y1="442.02" x2="769.57" y2="434.95"/><line class="cls-1" x1="762.5" y1="434.95" x2="769.57" y2="442.02"/><line class="cls-1" x1="24" y1="514.67" x2="31.07" y2="507.6"/><line class="cls-1" x1="24" y1="507.6" x2="31.07" y2="514.67"/><line class="cls-1" x1="76.75" y1="514.67" x2="83.82" y2="507.6"/><line class="cls-1" x1="76.75" y1="507.6" x2="83.82" y2="514.67"/><line class="cls-1" x1="129.5" y1="514.67" x2="136.57" y2="507.6"/><line class="cls-1" x1="129.5" y1="507.6" x2="136.57" y2="514.67"/><line class="cls-1" x1="182.25" y1="514.67" x2="189.32" y2="507.6"/><line class="cls-1" x1="182.25" y1="507.6" x2="189.32" y2="514.67"/><line class="cls-1" x1="235" y1="514.67" x2="242.07" y2="507.6"/><line class="cls-1" x1="235" y1="507.6" x2="242.07" y2="514.67"/><line class="cls-1" x1="287.75" y1="514.67" x2="294.82" y2="507.6"/><line class="cls-1" x1="287.75" y1="507.6" x2="294.82" y2="514.67"/><line class="cls-1" x1="340.5" y1="514.67" x2="347.57" y2="507.6"/><line class="cls-1" x1="340.5" y1="507.6" x2="347.57" y2="514.67"/><line class="cls-1" x1="393.25" y1="514.67" x2="400.32" y2="507.6"/><line class="cls-1" x1="393.25" y1="507.6" x2="400.32" y2="514.67"/><line class="cls-1" x1="446" y1="514.67" x2="453.07" y2="507.6"/><line class="cls-1" x1="446" y1="507.6" x2="453.07" y2="514.67"/><line class="cls-1" x1="498.75" y1="514.67" x2="505.82" y2="507.6"/><line class="cls-1" x1="498.75" y1="507.6" x2="505.82" y2="514.67"/><line class="cls-1" x1="551.5" y1="514.67" x2="558.57" y2="507.6"/><line class="cls-1" x1="551.5" y1="507.6" x2="558.57" y2="514.67"/><line class="cls-1" x1="604.25" y1="514.67" x2="611.32" y2="507.6"/><line class="cls-1" x1="604.25" y1="507.6" x2="611.32" y2="514.67"/><line class="cls-1" x1="657" y1="514.67" x2="664.07" y2="507.6"/><line class="cls-1" x1="657" y1="507.6" x2="664.07" y2="514.67"/><line class="cls-1" x1="709.75" y1="514.67" x2="716.82" y2="507.6"/><line class="cls-1" x1="709.75" y1="507.6" x2="716.82" y2="514.67"/><line class="cls-1" x1="762.5" y1="514.67" x2="769.57" y2="507.6"/><line class="cls-1" x1="762.5" y1="507.6" x2="769.57" y2="514.67"/><line class="cls-1" x1="24" y1="587.31" x2="31.07" y2="580.24"/><line class="cls-1" x1="24" y1="580.24" x2="31.07" y2="587.31"/><line class="cls-1" x1="76.75" y1="587.31" x2="83.82" y2="580.24"/><line class="cls-1" x1="76.75" y1="580.24" x2="83.82" y2="587.31"/><line class="cls-1" x1="129.5" y1="587.31" x2="136.57" y2="580.24"/><line class="cls-1" x1="129.5" y1="580.24" x2="136.57" y2="587.31"/><line class="cls-1" x1="182.25" y1="587.31" x2="189.32" y2="580.24"/><line class="cls-1" x1="182.25" y1="580.24" x2="189.32" y2="587.31"/><line class="cls-1" x1="235" y1="587.31" x2="242.07" y2="580.24"/><line class="cls-1" x1="235" y1="580.24" x2="242.07" y2="587.31"/><line class="cls-1" x1="287.75" y1="587.31" x2="294.82" y2="580.24"/><line class="cls-1" x1="287.75" y1="580.24" x2="294.82" y2="587.31"/><line class="cls-1" x1="340.5" y1="587.31" x2="347.57" y2="580.24"/><line class="cls-1" x1="340.5" y1="580.24" x2="347.57" y2="587.31"/><line class="cls-1" x1="393.25" y1="587.31" x2="400.32" y2="580.24"/><line class="cls-1" x1="393.25" y1="580.24" x2="400.32" y2="587.31"/><line class="cls-1" x1="446" y1="587.31" x2="453.07" y2="580.24"/><line class="cls-1" x1="446" y1="580.24" x2="453.07" y2="587.31"/><line class="cls-1" x1="498.75" y1="587.31" x2="505.82" y2="580.24"/><line class="cls-1" x1="498.75" y1="580.24" x2="505.82" y2="587.31"/><line class="cls-1" x1="551.5" y1="587.31" x2="558.57" y2="580.24"/><line class="cls-1" x1="551.5" y1="580.24" x2="558.57" y2="587.31"/><line class="cls-1" x1="604.25" y1="587.31" x2="611.32" y2="580.24"/><line class="cls-1" x1="604.25" y1="580.24" x2="611.32" y2="587.31"/><line class="cls-1" x1="657" y1="587.31" x2="664.07" y2="580.24"/><line class="cls-1" x1="657" y1="580.24" x2="664.07" y2="587.31"/><line class="cls-1" x1="709.75" y1="587.31" x2="716.82" y2="580.24"/><line class="cls-1" x1="709.75" y1="580.24" x2="716.82" y2="587.31"/><line class="cls-1" x1="762.5" y1="587.31" x2="769.57" y2="580.24"/><line class="cls-1" x1="762.5" y1="580.24" x2="769.57" y2="587.31"/><line class="cls-1" x1="50.38" y1="42.48" x2="57.45" y2="35.41"/><line class="cls-1" x1="50.38" y1="35.41" x2="57.45" y2="42.48"/><line class="cls-1" x1="103.13" y1="42.48" x2="110.2" y2="35.41"/><line class="cls-1" x1="103.13" y1="35.41" x2="110.2" y2="42.48"/><line class="cls-1" x1="155.88" y1="42.48" x2="162.95" y2="35.41"/><line class="cls-1" x1="155.88" y1="35.41" x2="162.95" y2="42.48"/><line class="cls-1" x1="208.63" y1="42.48" x2="215.7" y2="35.41"/><line class="cls-1" x1="208.63" y1="35.41" x2="215.7" y2="42.48"/><line class="cls-1" x1="261.38" y1="42.48" x2="268.45" y2="35.41"/><line class="cls-1" x1="261.38" y1="35.41" x2="268.45" y2="42.48"/><line class="cls-1" x1="314.13" y1="42.48" x2="321.2" y2="35.41"/><line class="cls-1" x1="314.13" y1="35.41" x2="321.2" y2="42.48"/><line class="cls-1" x1="366.88" y1="42.48" x2="373.95" y2="35.41"/><line class="cls-1" x1="366.88" y1="35.41" x2="373.95" y2="42.48"/><line class="cls-1" x1="419.63" y1="42.48" x2="426.7" y2="35.41"/><line class="cls-1" x1="419.63" y1="35.41" x2="426.7" y2="42.48"/><line class="cls-1" x1="472.38" y1="42.48" x2="479.45" y2="35.41"/><line class="cls-1" x1="472.38" y1="35.41" x2="479.45" y2="42.48"/><line class="cls-1" x1="525.13" y1="42.48" x2="532.2" y2="35.41"/><line class="cls-1" x1="525.13" y1="35.41" x2="532.2" y2="42.48"/><line class="cls-1" x1="577.88" y1="42.48" x2="584.95" y2="35.41"/><line class="cls-1" x1="577.88" y1="35.41" x2="584.95" y2="42.48"/><line class="cls-1" x1="630.63" y1="42.48" x2="637.7" y2="35.41"/><line class="cls-1" x1="630.63" y1="35.41" x2="637.7" y2="42.48"/><line class="cls-1" x1="683.38" y1="42.48" x2="690.45" y2="35.41"/><line class="cls-1" x1="683.38" y1="35.41" x2="690.45" y2="42.48"/><line class="cls-1" x1="736.13" y1="42.48" x2="743.2" y2="35.41"/><line class="cls-1" x1="736.13" y1="35.41" x2="743.2" y2="42.48"/><line class="cls-1" x1="50.38" y1="115.12" x2="57.45" y2="108.05"/><line class="cls-1" x1="50.38" y1="108.05" x2="57.45" y2="115.12"/><line class="cls-1" x1="103.13" y1="115.12" x2="110.2" y2="108.05"/><line class="cls-1" x1="103.13" y1="108.05" x2="110.2" y2="115.12"/><line class="cls-1" x1="155.88" y1="115.12" x2="162.95" y2="108.05"/><line class="cls-1" x1="155.88" y1="108.05" x2="162.95" y2="115.12"/><line class="cls-1" x1="208.63" y1="115.12" x2="215.7" y2="108.05"/><line class="cls-1" x1="208.63" y1="108.05" x2="215.7" y2="115.12"/><line class="cls-1" x1="261.38" y1="115.12" x2="268.45" y2="108.05"/><line class="cls-1" x1="261.38" y1="108.05" x2="268.45" y2="115.12"/><line class="cls-1" x1="314.13" y1="115.12" x2="321.2" y2="108.05"/><line class="cls-1" x1="314.13" y1="108.05" x2="321.2" y2="115.12"/><line class="cls-1" x1="366.88" y1="115.12" x2="373.95" y2="108.05"/><line class="cls-1" x1="366.88" y1="108.05" x2="373.95" y2="115.12"/><line class="cls-1" x1="419.63" y1="115.12" x2="426.7" y2="108.05"/><line class="cls-1" x1="419.63" y1="108.05" x2="426.7" y2="115.12"/><line class="cls-1" x1="472.38" y1="115.12" x2="479.45" y2="108.05"/><line class="cls-1" x1="472.38" y1="108.05" x2="479.45" y2="115.12"/><line class="cls-1" x1="525.13" y1="115.12" x2="532.2" y2="108.05"/><line class="cls-1" x1="525.13" y1="108.05" x2="532.2" y2="115.12"/><line class="cls-1" x1="577.88" y1="115.12" x2="584.95" y2="108.05"/><line class="cls-1" x1="577.88" y1="108.05" x2="584.95" y2="115.12"/><line class="cls-1" x1="630.63" y1="115.12" x2="637.7" y2="108.05"/><line class="cls-1" x1="630.63" y1="108.05" x2="637.7" y2="115.12"/><line class="cls-1" x1="683.38" y1="115.12" x2="690.45" y2="108.05"/><line class="cls-1" x1="683.38" y1="108.05" x2="690.45" y2="115.12"/><line class="cls-1" x1="736.13" y1="115.12" x2="743.2" y2="108.05"/><line class="cls-1" x1="736.13" y1="108.05" x2="743.2" y2="115.12"/><line class="cls-1" x1="50.38" y1="187.77" x2="57.45" y2="180.7"/><line class="cls-1" x1="50.38" y1="180.7" x2="57.45" y2="187.77"/><line class="cls-1" x1="103.13" y1="187.77" x2="110.2" y2="180.7"/><line class="cls-1" x1="103.13" y1="180.7" x2="110.2" y2="187.77"/><line class="cls-1" x1="155.88" y1="187.77" x2="162.95" y2="180.7"/><line class="cls-1" x1="155.88" y1="180.7" x2="162.95" y2="187.77"/><line class="cls-1" x1="208.63" y1="187.77" x2="215.7" y2="180.7"/><line class="cls-1" x1="208.63" y1="180.7" x2="215.7" y2="187.77"/><line class="cls-1" x1="261.38" y1="187.77" x2="268.45" y2="180.7"/><line class="cls-1" x1="261.38" y1="180.7" x2="268.45" y2="187.77"/><line class="cls-1" x1="314.13" y1="187.77" x2="321.2" y2="180.7"/><line class="cls-1" x1="314.13" y1="180.7" x2="321.2" y2="187.77"/><line class="cls-1" x1="366.88" y1="187.77" x2="373.95" y2="180.7"/><line class="cls-1" x1="366.88" y1="180.7" x2="373.95" y2="187.77"/><line class="cls-1" x1="419.63" y1="187.77" x2="426.7" y2="180.7"/><line class="cls-1" x1="419.63" y1="180.7" x2="426.7" y2="187.77"/><line class="cls-1" x1="472.38" y1="187.77" x2="479.45" y2="180.7"/><line class="cls-1" x1="472.38" y1="180.7" x2="479.45" y2="187.77"/><line class="cls-1" x1="525.13" y1="187.77" x2="532.2" y2="180.7"/><line class="cls-1" x1="525.13" y1="180.7" x2="532.2" y2="187.77"/><line class="cls-1" x1="577.88" y1="187.77" x2="584.95" y2="180.7"/><line class="cls-1" x1="577.88" y1="180.7" x2="584.95" y2="187.77"/><line class="cls-1" x1="630.63" y1="187.77" x2="637.7" y2="180.7"/><line class="cls-1" x1="630.63" y1="180.7" x2="637.7" y2="187.77"/><line class="cls-1" x1="683.38" y1="187.77" x2="690.45" y2="180.7"/><line class="cls-1" x1="683.38" y1="180.7" x2="690.45" y2="187.77"/><line class="cls-1" x1="736.13" y1="187.77" x2="743.2" y2="180.7"/><line class="cls-1" x1="736.13" y1="180.7" x2="743.2" y2="187.77"/><line class="cls-1" x1="50.38" y1="260.41" x2="57.45" y2="253.34"/><line class="cls-1" x1="50.38" y1="253.34" x2="57.45" y2="260.41"/><line class="cls-1" x1="103.13" y1="260.41" x2="110.2" y2="253.34"/><line class="cls-1" x1="103.13" y1="253.34" x2="110.2" y2="260.41"/><line class="cls-1" x1="155.88" y1="260.41" x2="162.95" y2="253.34"/><line class="cls-1" x1="155.88" y1="253.34" x2="162.95" y2="260.41"/><line class="cls-1" x1="208.63" y1="260.41" x2="215.7" y2="253.34"/><line class="cls-1" x1="208.63" y1="253.34" x2="215.7" y2="260.41"/><line class="cls-1" x1="261.38" y1="260.41" x2="268.45" y2="253.34"/><line class="cls-1" x1="261.38" y1="253.34" x2="268.45" y2="260.41"/><line class="cls-1" x1="314.13" y1="260.41" x2="321.2" y2="253.34"/><line class="cls-1" x1="314.13" y1="253.34" x2="321.2" y2="260.41"/><line class="cls-1" x1="366.88" y1="260.41" x2="373.95" y2="253.34"/><line class="cls-1" x1="366.88" y1="253.34" x2="373.95" y2="260.41"/><line class="cls-1" x1="419.63" y1="260.41" x2="426.7" y2="253.34"/><line class="cls-1" x1="419.63" y1="253.34" x2="426.7" y2="260.41"/><line class="cls-1" x1="472.38" y1="260.41" x2="479.45" y2="253.34"/><line class="cls-1" x1="472.38" y1="253.34" x2="479.45" y2="260.41"/><line class="cls-1" x1="525.13" y1="260.41" x2="532.2" y2="253.34"/><line class="cls-1" x1="525.13" y1="253.34" x2="532.2" y2="260.41"/><line class="cls-1" x1="577.88" y1="260.41" x2="584.95" y2="253.34"/><line class="cls-1" x1="577.88" y1="253.34" x2="584.95" y2="260.41"/><line class="cls-1" x1="630.63" y1="260.41" x2="637.7" y2="253.34"/><line class="cls-1" x1="630.63" y1="253.34" x2="637.7" y2="260.41"/><line class="cls-1" x1="683.38" y1="260.41" x2="690.45" y2="253.34"/><line class="cls-1" x1="683.38" y1="253.34" x2="690.45" y2="260.41"/><line class="cls-1" x1="736.13" y1="260.41" x2="743.2" y2="253.34"/><line class="cls-1" x1="736.13" y1="253.34" x2="743.2" y2="260.41"/><line class="cls-1" x1="50.38" y1="333.06" x2="57.45" y2="325.99"/><line class="cls-1" x1="50.38" y1="325.99" x2="57.45" y2="333.06"/><line class="cls-1" x1="103.13" y1="333.06" x2="110.2" y2="325.99"/><line class="cls-1" x1="103.13" y1="325.99" x2="110.2" y2="333.06"/><line class="cls-1" x1="155.88" y1="333.06" x2="162.95" y2="325.99"/><line class="cls-1" x1="155.88" y1="325.99" x2="162.95" y2="333.06"/><line class="cls-1" x1="208.63" y1="333.06" x2="215.7" y2="325.99"/><line class="cls-1" x1="208.63" y1="325.99" x2="215.7" y2="333.06"/><line class="cls-1" x1="261.38" y1="333.06" x2="268.45" y2="325.99"/><line class="cls-1" x1="261.38" y1="325.99" x2="268.45" y2="333.06"/><line class="cls-1" x1="314.13" y1="333.06" x2="321.2" y2="325.99"/><line class="cls-1" x1="314.13" y1="325.99" x2="321.2" y2="333.06"/><line class="cls-1" x1="366.88" y1="333.06" x2="373.95" y2="325.99"/><line class="cls-1" x1="366.88" y1="325.99" x2="373.95" y2="333.06"/><line class="cls-1" x1="419.63" y1="333.06" x2="426.7" y2="325.99"/><line class="cls-1" x1="419.63" y1="325.99" x2="426.7" y2="333.06"/><line class="cls-1" x1="472.38" y1="333.06" x2="479.45" y2="325.99"/><line class="cls-1" x1="472.38" y1="325.99" x2="479.45" y2="333.06"/><line class="cls-1" x1="525.13" y1="333.06" x2="532.2" y2="325.99"/><line class="cls-1" x1="525.13" y1="325.99" x2="532.2" y2="333.06"/><line class="cls-1" x1="577.88" y1="333.06" x2="584.95" y2="325.99"/><line class="cls-1" x1="577.88" y1="325.99" x2="584.95" y2="333.06"/><line class="cls-1" x1="630.63" y1="333.06" x2="637.7" y2="325.99"/><line class="cls-1" x1="630.63" y1="325.99" x2="637.7" y2="333.06"/><line class="cls-1" x1="683.38" y1="333.06" x2="690.45" y2="325.99"/><line class="cls-1" x1="683.38" y1="325.99" x2="690.45" y2="333.06"/><line class="cls-1" x1="736.13" y1="333.06" x2="743.2" y2="325.99"/><line class="cls-1" x1="736.13" y1="325.99" x2="743.2" y2="333.06"/><line class="cls-1" x1="50.38" y1="405.7" x2="57.45" y2="398.63"/><line class="cls-1" x1="50.38" y1="398.63" x2="57.45" y2="405.7"/><line class="cls-1" x1="103.13" y1="405.7" x2="110.2" y2="398.63"/><line class="cls-1" x1="103.13" y1="398.63" x2="110.2" y2="405.7"/><line class="cls-1" x1="155.88" y1="405.7" x2="162.95" y2="398.63"/><line class="cls-1" x1="155.88" y1="398.63" x2="162.95" y2="405.7"/><line class="cls-1" x1="208.63" y1="405.7" x2="215.7" y2="398.63"/><line class="cls-1" x1="208.63" y1="398.63" x2="215.7" y2="405.7"/><line class="cls-1" x1="261.38" y1="405.7" x2="268.45" y2="398.63"/><line class="cls-1" x1="261.38" y1="398.63" x2="268.45" y2="405.7"/><line class="cls-1" x1="314.13" y1="405.7" x2="321.2" y2="398.63"/><line class="cls-1" x1="314.13" y1="398.63" x2="321.2" y2="405.7"/><line class="cls-1" x1="366.88" y1="405.7" x2="373.95" y2="398.63"/><line class="cls-1" x1="366.88" y1="398.63" x2="373.95" y2="405.7"/><line class="cls-1" x1="419.63" y1="405.7" x2="426.7" y2="398.63"/><line class="cls-1" x1="419.63" y1="398.63" x2="426.7" y2="405.7"/><line class="cls-1" x1="472.38" y1="405.7" x2="479.45" y2="398.63"/><line class="cls-1" x1="472.38" y1="398.63" x2="479.45" y2="405.7"/><line class="cls-1" x1="525.13" y1="405.7" x2="532.2" y2="398.63"/><line class="cls-1" x1="525.13" y1="398.63" x2="532.2" y2="405.7"/><line class="cls-1" x1="577.88" y1="405.7" x2="584.95" y2="398.63"/><line class="cls-1" x1="577.88" y1="398.63" x2="584.95" y2="405.7"/><line class="cls-1" x1="630.63" y1="405.7" x2="637.7" y2="398.63"/><line class="cls-1" x1="630.63" y1="398.63" x2="637.7" y2="405.7"/><line class="cls-1" x1="683.38" y1="405.7" x2="690.45" y2="398.63"/><line class="cls-1" x1="683.38" y1="398.63" x2="690.45" y2="405.7"/><line class="cls-1" x1="736.13" y1="405.7" x2="743.2" y2="398.63"/><line class="cls-1" x1="736.13" y1="398.63" x2="743.2" y2="405.7"/><line class="cls-1" x1="50.38" y1="478.35" x2="57.45" y2="471.28"/><line class="cls-1" x1="50.38" y1="471.28" x2="57.45" y2="478.35"/><line class="cls-1" x1="103.13" y1="478.35" x2="110.2" y2="471.28"/><line class="cls-1" x1="103.13" y1="471.28" x2="110.2" y2="478.35"/><line class="cls-1" x1="155.88" y1="478.35" x2="162.95" y2="471.28"/><line class="cls-1" x1="155.88" y1="471.28" x2="162.95" y2="478.35"/><line class="cls-1" x1="208.63" y1="478.35" x2="215.7" y2="471.28"/><line class="cls-1" x1="208.63" y1="471.28" x2="215.7" y2="478.35"/><line class="cls-1" x1="261.38" y1="478.35" x2="268.45" y2="471.28"/><line class="cls-1" x1="261.38" y1="471.28" x2="268.45" y2="478.35"/><line class="cls-1" x1="314.13" y1="478.35" x2="321.2" y2="471.28"/><line class="cls-1" x1="314.13" y1="471.28" x2="321.2" y2="478.35"/><line class="cls-1" x1="366.88" y1="478.35" x2="373.95" y2="471.28"/><line class="cls-1" x1="366.88" y1="471.28" x2="373.95" y2="478.35"/><line class="cls-1" x1="419.63" y1="478.35" x2="426.7" y2="471.28"/><line class="cls-1" x1="419.63" y1="471.28" x2="426.7" y2="478.35"/><line class="cls-1" x1="472.38" y1="478.35" x2="479.45" y2="471.28"/><line class="cls-1" x1="472.38" y1="471.28" x2="479.45" y2="478.35"/><line class="cls-1" x1="525.13" y1="478.35" x2="532.2" y2="471.28"/><line class="cls-1" x1="525.13" y1="471.28" x2="532.2" y2="478.35"/><line class="cls-1" x1="577.88" y1="478.35" x2="584.95" y2="471.28"/><line class="cls-1" x1="577.88" y1="471.28" x2="584.95" y2="478.35"/><line class="cls-1" x1="630.63" y1="478.35" x2="637.7" y2="471.28"/><line class="cls-1" x1="630.63" y1="471.28" x2="637.7" y2="478.35"/><line class="cls-1" x1="683.38" y1="478.35" x2="690.45" y2="471.28"/><line class="cls-1" x1="683.38" y1="471.28" x2="690.45" y2="478.35"/><line class="cls-1" x1="736.13" y1="478.35" x2="743.2" y2="471.28"/><line class="cls-1" x1="736.13" y1="471.28" x2="743.2" y2="478.35"/><line class="cls-1" x1="50.38" y1="550.99" x2="57.45" y2="543.92"/><line class="cls-1" x1="50.38" y1="543.92" x2="57.45" y2="550.99"/><line class="cls-1" x1="103.13" y1="550.99" x2="110.2" y2="543.92"/><line class="cls-1" x1="103.13" y1="543.92" x2="110.2" y2="550.99"/><line class="cls-1" x1="155.88" y1="550.99" x2="162.95" y2="543.92"/><line class="cls-1" x1="155.88" y1="543.92" x2="162.95" y2="550.99"/><line class="cls-1" x1="208.63" y1="550.99" x2="215.7" y2="543.92"/><line class="cls-1" x1="208.63" y1="543.92" x2="215.7" y2="550.99"/><line class="cls-1" x1="261.38" y1="550.99" x2="268.45" y2="543.92"/><line class="cls-1" x1="261.38" y1="543.92" x2="268.45" y2="550.99"/><line class="cls-1" x1="314.13" y1="550.99" x2="321.2" y2="543.92"/><line class="cls-1" x1="314.13" y1="543.92" x2="321.2" y2="550.99"/><line class="cls-1" x1="366.88" y1="550.99" x2="373.95" y2="543.92"/><line class="cls-1" x1="366.88" y1="543.92" x2="373.95" y2="550.99"/><line class="cls-1" x1="419.63" y1="550.99" x2="426.7" y2="543.92"/><line class="cls-1" x1="419.63" y1="543.92" x2="426.7" y2="550.99"/><line class="cls-1" x1="472.38" y1="550.99" x2="479.45" y2="543.92"/><line class="cls-1" x1="472.38" y1="543.92" x2="479.45" y2="550.99"/><line class="cls-1" x1="525.13" y1="550.99" x2="532.2" y2="543.92"/><line class="cls-1" x1="525.13" y1="543.92" x2="532.2" y2="550.99"/><line class="cls-1" x1="577.88" y1="550.99" x2="584.95" y2="543.92"/><line class="cls-1" x1="577.88" y1="543.92" x2="584.95" y2="550.99"/><line class="cls-1" x1="630.63" y1="550.99" x2="637.7" y2="543.92"/><line class="cls-1" x1="630.63" y1="543.92" x2="637.7" y2="550.99"/><line class="cls-1" x1="683.38" y1="550.99" x2="690.45" y2="543.92"/><line class="cls-1" x1="683.38" y1="543.92" x2="690.45" y2="550.99"/><line class="cls-1" x1="736.13" y1="550.99" x2="743.2" y2="543.92"/><line class="cls-1" x1="736.13" y1="543.92" x2="743.2" y2="550.99"/></svg>