<?xml version="1.0" encoding="utf-8"?>
<!-- Generator: Adobe Illustrator 20.0.0, SVG Export Plug-In . SVG Version: 6.00 Build 0)  -->
<svg version="1.1" id="Layer_1" xmlns="http://www.w3.org/2000/svg" xmlns:xlink="http://www.w3.org/1999/xlink" x="0px" y="0px"
	 viewBox="0 0 155.1 19.2" style="enable-background:new 0 0 155.1 19.2;" xml:space="preserve">
<style type="text/css">
	.st0{enable-background:new    ;}
	.st1{fill:#FFFFFF;}
</style>
<g class="st0">
	<path class="st1" d="M16.8,15.1h-0.6l0,0l0,0l-2.7-5l-2.8,5h-0.6L2.6,1.2h1.3l6.5,12.1L12.8,9L8.6,1.2h9.1l-2.5,4.6h-1.3l1.9-3.5
		h-5.2l5.9,11l5.9-11h-2.8l0.7-1.1h4.1L16.8,15.1z"/>
</g>
<g class="st0">
	<path class="st1" d="M27.2,2.3l5.9,7.8h-7V14h9.8v1.1H25V1.2h10.9v1.1H27.2z M26.1,9.1h4.8l-4.8-6.4V9.1z"/>
</g>
<g class="st0">
	<path class="st1" d="M37.1,1.2H44c3,0,4.7,2.1,4.7,4.1c0,1.9-1.1,3.2-3.1,4.1l4.3,5.7H37.1V1.2z M43.8,9c1.9-0.9,3.8-1.6,3.8-3.6
		c0-1.8-1.4-3.1-3.5-3.1h-5.8V14h9.1L43.8,9z"/>
</g>
<g class="st0">
	<path class="st1" d="M49.7,8.2c0-3.9,3.2-7.1,7.1-7.1s7.1,3.2,7.1,7.1s-3.2,7.1-7.1,7.1S49.7,12.1,49.7,8.2z M62.8,8.2
		c0-3.3-2.7-6-6-6c-3.3,0-6,2.7-6,6s2.7,6,6,6C60.1,14.2,62.8,11.5,62.8,8.2z"/>
</g>
<g class="st0">
	<path class="st1" d="M71.8,1.2c3,0,4.8,2.3,4.8,4.5c0,2.2-1.5,4.4-4.6,4.4h-5.5v5H66V9.7h5.9l-6.7-8.5H71.8z M72.5,9.7
		c2.2-0.2,3.6-1.9,3.6-3.9c0-2.1-1.8-4-4.2-4h-5.7L72.5,9.7z"/>
</g>
<g class="st0">
	<path class="st1" d="M88.4,15.1H77.6V1.2h0.5v13.4h10.4V15.1z"/>
</g>
<g class="st0">
	<path class="st1" d="M97.1,1.2l7.7,13.9H89.4L97.1,1.2z M90.3,14.6h13.6L97.1,2.2L90.3,14.6z"/>
</g>
<g class="st0">
	<path class="st1" d="M107.4,11.2v3.9h-0.5v-3.8l-6.8-10.1h0.6l6.4,9.5l6.1-9h-7.2l0.3-0.5h7.8L107.4,11.2z"/>
</g>
<g class="st0">
	<path class="st1" d="M116,1.7l6.5,8.5h-7v4.5h10.4v0.5h-10.9V1.2h10.9v0.5H116z M115.4,9.7h6l-6-7.8V9.7z"/>
</g>
<g class="st0">
	<path class="st1" d="M127.6,1.2h6.8c3,0,4.7,2.1,4.7,4.1c0,1.9-1.1,3.2-3.1,4.1l4.3,5.7h-12.7V1.2z M135.2,9.2
		c2.2-0.9,3.4-2,3.4-3.9c0-2-1.8-3.6-4.1-3.6h-6.5v12.9h11.2L135.2,9.2z"/>
</g>
<g class="st0">
	<path class="st1" d="M139.8,8.2c0-3.9,3.2-7.1,7.1-7.1c3.9,0,7.1,3.2,7.1,7.1s-3.2,7.1-7.1,7.1C143,15.3,139.8,12.1,139.8,8.2z
		 M153.5,8.2c0-3.6-2.9-6.6-6.6-6.6c-3.7,0-6.6,2.9-6.6,6.6c0,3.6,3,6.6,6.6,6.6C150.5,14.8,153.5,11.8,153.5,8.2z"/>
</g>
</svg>
