<?xml version="1.0" encoding="utf-8"?>
<!-- Generator: Adobe Illustrator 20.0.0, SVG Export Plug-In . SVG Version: 6.00 Build 0)  -->
<svg version="1.1" id="Layer_1" xmlns="http://www.w3.org/2000/svg" xmlns:xlink="http://www.w3.org/1999/xlink" x="0px" y="0px"
	 viewBox="0 0 176 175.1" style="enable-background:new 0 0 176 175.1;" xml:space="preserve">
<style type="text/css">
	.st0{fill:#1E1E1E;}
	.st1{fill:none;}
</style>
<g>
	<polygon class="st0" points="115.2,91.7 90.2,136 140.5,136 	"/>
	<path class="st0" d="M143.5,38.4l-26.1,48.1l26.8,48.7c11.1-12.9,17.8-29.8,17.8-48.1C161.9,68.4,155,51.3,143.5,38.4z"/>
	<polygon class="st0" points="90.4,37.9 115.1,82.9 139.5,37.9 	"/>
	<path class="st0" d="M88.1,132.4L113,86.5L88.7,42.3L63.9,87.6L88.1,132.4z M91.2,75.7h8.7v3.7h-8.7V75.7z M88.4,75.7v32.7H85v-29
		H73.5v-3.7H88.4z"/>
	<polygon class="st0" points="86.1,136 61.7,92.7 37,136 	"/>
	<path class="st0" d="M61.7,83.4l27.5-50h49.7c-13.1-11.3-30.8-19.8-50.3-19.8c-20.7,0-39.4,8.5-52.8,22.1L61.7,83.4z"/>
	<path class="st0" d="M37.7,140c13.2,13.2,31.2,20.5,50.9,20.5c19.6,0,37.5-7.2,50.6-20.5L37.7,140L37.7,140z"/>
	<path class="st0" d="M59.5,87.5L33,38.8C21.7,51.7,14.8,68.6,14.8,87.1s6.8,35.4,18.2,48.4L59.5,87.5z"/>
	<path class="st0" d="M88.4,1.5C41,1.5,2.6,39.9,2.6,87.3s38.4,85.8,85.8,85.8s85.8-38.4,85.8-85.8S135.8,1.5,88.4,1.5z M88.4,166.3
		c-43.6,0-79.1-35.5-79.1-79.1S44.8,8.2,88.4,8.2s79.1,35.4,79.1,79.1S132,166.3,88.4,166.3z"/>
</g>
<line class="st1" x1="61.8" y1="139.3" x2="61.8" y2="34.7"/>
<line class="st1" x1="90" y1="34.6" x2="35.5" y2="34.6"/>
</svg>
